<?xml version="1.0" standalone="no"?>
<!DOCTYPE svg PUBLIC "-//W3C//DTD SVG 20010904//EN"
 "http://www.w3.org/TR/2001/REC-SVG-20010904/DTD/svg10.dtd">
<svg version="1.0" xmlns="http://www.w3.org/2000/svg"
 width="1280.000000pt" height="1280.000000pt" viewBox="0 0 1280.000000 1280.000000"
 preserveAspectRatio="xMidYMid meet">
<metadata>
Created by potrace 1.14, written by Peter Selinger 2001-2017
</metadata>
<g transform="translate(0.000000,1280.000000) scale(0.100000,-0.100000)"
fill="#000000" stroke="none">
<path d="M3109 10895 c-2 -1 -74 -6 -159 -9 -85 -4 -180 -9 -210 -11 -115 -9
-187 -15 -232 -20 -115 -12 -146 -16 -198 -21 -30 -3 -66 -7 -80 -10 -14 -2
-46 -6 -71 -9 -25 -3 -56 -8 -70 -10 -13 -3 -46 -7 -73 -10 -27 -3 -51 -7 -55
-9 -3 -2 -30 -7 -60 -11 -30 -4 -63 -9 -75 -11 -12 -3 -55 -11 -96 -19 -405
-75 -818 -193 -1085 -309 -27 -11 -63 -28 -80 -36 l-30 -15 0 -208 c0 -177 -2
-207 -15 -207 -34 0 -398 -125 -482 -166 l-38 -18 0 -3943 0 -3943 32 14 c18
8 67 28 108 46 148 64 529 186 635 204 17 2 46 10 65 16 36 12 40 12 105 25
22 5 45 9 50 11 6 1 44 10 85 18 41 9 86 18 100 21 32 7 247 45 280 50 137 20
396 55 440 60 30 3 71 8 90 10 19 2 71 7 115 11 44 4 94 8 110 10 17 1 75 6
130 9 55 4 116 8 135 10 237 24 1093 24 1370 0 25 -2 88 -7 140 -11 142 -10
160 -11 220 -18 30 -3 82 -8 115 -11 60 -6 119 -13 165 -20 14 -2 52 -7 85
-10 33 -3 69 -8 80 -10 11 -2 40 -7 65 -10 25 -3 56 -7 69 -10 14 -2 47 -7 75
-10 28 -3 58 -8 66 -10 8 -2 33 -6 55 -10 43 -6 194 -32 235 -40 14 -3 50 -9
80 -15 75 -14 81 -15 200 -40 58 -12 112 -23 120 -25 38 -8 341 -79 390 -92
30 -8 98 -26 150 -39 52 -14 128 -36 169 -49 l74 -24 46 19 c156 63 537 178
719 215 9 2 69 15 132 29 117 26 191 40 320 61 19 3 58 10 85 15 28 5 68 12
90 15 38 6 55 8 135 19 19 2 51 7 70 10 19 3 78 10 130 16 52 6 111 13 130 15
19 3 67 7 105 11 39 3 88 8 110 10 22 2 81 6 130 9 50 3 113 7 142 10 277 24
1129 24 1363 0 19 -2 82 -6 140 -9 58 -3 114 -8 125 -10 11 -2 56 -7 100 -10
44 -3 118 -11 165 -16 47 -6 123 -15 169 -21 89 -10 138 -17 186 -24 17 -3 48
-7 70 -10 91 -14 328 -52 365 -60 14 -3 40 -7 59 -10 18 -2 41 -7 50 -9 9 -3
32 -8 51 -11 19 -3 46 -8 60 -10 14 -3 34 -7 45 -9 43 -9 394 -87 470 -105
134 -31 313 -80 450 -123 72 -22 142 -44 158 -48 l27 -9 0 3939 0 3939 -87 26
c-49 15 -115 34 -148 44 -33 10 -109 31 -170 46 -60 15 -114 32 -119 36 -5 5
-10 106 -10 226 l-1 218 -80 28 c-165 58 -661 196 -805 223 -14 3 -41 9 -60
14 -19 5 -46 11 -60 14 -14 2 -81 16 -150 30 -135 27 -385 71 -464 81 -27 3
-52 8 -55 10 -3 1 -35 6 -71 10 -36 4 -72 8 -80 10 -9 2 -43 6 -75 10 -33 4
-71 8 -85 10 -14 2 -50 7 -80 10 -30 3 -73 8 -95 10 -53 5 -179 16 -235 20
-250 16 -366 20 -690 20 -415 -1 -626 -9 -925 -39 -27 -3 -75 -8 -105 -11 -30
-3 -69 -7 -86 -9 -17 -3 -60 -8 -95 -11 -35 -3 -71 -8 -79 -10 -8 -2 -40 -7
-70 -10 -30 -3 -62 -8 -70 -10 -8 -2 -35 -7 -60 -10 -25 -3 -52 -8 -60 -10 -8
-2 -35 -7 -60 -10 -25 -3 -52 -8 -60 -10 -8 -2 -31 -7 -50 -10 -75 -13 -314
-65 -363 -80 -29 -8 -53 -15 -55 -15 -28 4 -451 -128 -586 -183 l-58 -24 -62
20 c-104 33 -586 162 -681 181 -11 3 -54 12 -95 21 -41 9 -86 18 -100 20 -14
2 -36 7 -50 10 -34 8 -336 64 -380 71 -19 3 -75 12 -123 20 -48 8 -105 17
-125 19 -20 2 -73 9 -117 15 -120 17 -127 18 -302 35 -29 3 -74 7 -100 10 -27
3 -86 7 -133 11 -47 3 -116 8 -155 10 -80 6 -861 14 -866 9z m701 -269 c184
-8 356 -19 465 -31 28 -3 73 -7 100 -10 157 -15 172 -17 370 -46 44 -6 89 -12
100 -14 11 -1 40 -5 65 -9 25 -4 59 -10 75 -12 17 -2 68 -12 115 -20 47 -9 96
-18 110 -20 14 -2 36 -7 50 -10 14 -3 36 -8 50 -10 22 -4 115 -23 145 -30 6
-1 21 -4 35 -7 22 -5 140 -31 250 -56 77 -18 350 -92 435 -119 l90 -28 0
-3657 c0 -2361 -3 -3657 -10 -3657 -5 0 -39 9 -75 20 -89 27 -209 61 -229 65
-9 2 -36 8 -61 15 -25 6 -58 13 -75 16 -16 3 -38 10 -47 15 -10 5 -18 8 -18 5
0 -2 -16 0 -36 6 -20 5 -44 11 -53 13 -9 2 -47 11 -86 20 -38 9 -90 20 -115
24 -79 16 -104 21 -150 31 -25 5 -72 14 -105 20 -33 5 -70 12 -81 14 -30 6
-81 14 -139 22 -27 3 -53 8 -57 10 -3 2 -28 7 -55 10 -26 3 -63 7 -80 10 -18
2 -48 6 -65 8 -18 3 -49 7 -68 10 -116 16 -163 22 -265 31 -44 4 -95 9 -114
11 -31 4 -110 10 -236 19 -321 21 -882 22 -1295 0 -97 -5 -270 -16 -310 -20
-19 -2 -73 -6 -120 -10 -47 -3 -103 -8 -125 -10 -22 -2 -71 -6 -110 -10 -38
-3 -81 -7 -95 -10 -14 -2 -52 -7 -85 -10 -33 -4 -71 -8 -85 -10 -14 -3 -41 -7
-60 -9 -59 -9 -183 -26 -217 -31 -85 -13 -101 -15 -148 -24 -27 -6 -63 -12
-80 -15 -16 -2 -55 -9 -85 -16 -30 -6 -66 -13 -80 -15 -40 -8 -61 -12 -135
-30 -38 -9 -79 -18 -90 -20 -11 -2 -38 -8 -60 -14 -22 -6 -46 -11 -53 -11 -10
0 -12 723 -10 3597 l3 3597 75 29 c41 15 82 30 90 31 8 2 58 18 110 34 282 90
785 201 1080 237 25 3 56 8 70 10 14 2 54 7 90 10 36 4 72 8 80 10 8 1 51 6
95 10 44 4 93 8 109 10 15 2 72 7 125 11 53 3 116 8 141 9 25 2 135 7 245 10
110 4 201 8 202 9 4 3 360 -3 493 -8z m5715 0 c105 -4 208 -8 230 -10 22 -3
81 -7 130 -11 50 -3 106 -8 125 -10 19 -2 64 -7 100 -10 36 -3 79 -8 95 -10
17 -2 55 -7 85 -10 30 -4 64 -8 75 -10 11 -2 41 -6 67 -9 102 -13 191 -26 197
-30 3 -2 33 -7 66 -10 33 -4 67 -9 75 -11 8 -2 29 -7 45 -10 121 -21 164 -29
275 -51 129 -26 219 -46 400 -90 58 -15 114 -28 124 -30 10 -2 33 -8 51 -14
18 -6 41 -12 51 -15 17 -3 57 -14 217 -60 26 -8 52 -17 57 -20 7 -4 10 -1233
10 -3604 l0 -3598 -107 22 c-120 25 -329 65 -365 70 -13 1 -68 10 -123 19 -55
10 -111 19 -125 22 -14 2 -45 6 -70 9 -25 3 -56 8 -70 10 -14 3 -42 7 -62 10
-21 3 -55 7 -75 10 -21 3 -49 7 -63 10 -14 2 -50 7 -80 10 -30 3 -66 7 -80 9
-14 3 -55 7 -92 11 -37 3 -77 8 -90 10 -29 4 -147 16 -213 21 -27 2 -72 5
-100 8 -75 7 -179 15 -280 22 -522 34 -1110 34 -1565 -1 -52 -4 -111 -8 -130
-10 -19 -1 -64 -6 -99 -10 -35 -4 -81 -8 -102 -10 -20 -2 -55 -6 -76 -9 -21
-3 -60 -8 -88 -11 -27 -3 -122 -17 -210 -30 -197 -31 -214 -34 -245 -41 -33
-8 -50 -11 -91 -18 -74 -13 -102 -19 -314 -71 -121 -30 -256 -66 -300 -80 -44
-15 -87 -28 -95 -30 -8 -2 -48 -15 -88 -28 l-73 -25 2 3653 2 3654 51 20 c28
11 58 22 66 23 13 3 15 -328 17 -2922 0 -1609 2 -2933 2 -2943 1 -15 3 -16 14
-5 14 13 58 50 188 159 42 35 101 86 133 113 l56 48 72 -58 c99 -80 109 -87
122 -99 6 -6 56 -47 112 -92 l101 -81 1 3036 c0 1670 1 3044 1 3053 1 9 7 16
14 16 17 1 85 13 135 24 47 10 47 10 252 39 189 27 206 29 265 35 28 2 73 7
100 10 82 9 125 13 225 20 52 4 115 8 140 11 25 2 142 7 260 10 118 3 216 7
217 8 3 2 266 -2 448 -8z"/>
<path d="M3137 9164 c-1 -1 -69 -5 -152 -9 -82 -3 -170 -8 -195 -10 -25 -2
-90 -7 -145 -11 -55 -3 -108 -8 -118 -10 -10 -1 -50 -6 -90 -9 -39 -3 -83 -8
-97 -10 -14 -2 -50 -7 -80 -10 -58 -7 -81 -10 -145 -20 -22 -3 -53 -7 -70 -10
-58 -7 -110 -16 -135 -21 -13 -3 -38 -7 -55 -10 -30 -4 -58 -9 -106 -19 -25
-6 -26 -8 -18 -43 4 -20 10 -50 13 -67 3 -16 11 -58 17 -93 l13 -62 40 6 c22
3 43 7 46 9 3 2 26 6 50 9 25 3 56 8 70 11 14 3 39 7 55 9 17 3 62 9 100 15
39 5 93 13 120 16 28 3 84 10 125 15 97 12 179 20 260 25 36 3 88 7 115 10
281 27 1105 27 1375 1 19 -2 75 -7 124 -11 49 -4 98 -8 110 -10 11 -2 51 -6
88 -10 37 -3 77 -8 90 -10 13 -2 46 -7 73 -10 74 -8 302 -41 340 -49 11 -2 43
-7 71 -11 l51 -7 17 94 c9 51 19 110 22 130 6 40 12 36 -86 52 -14 2 -36 7
-50 10 -14 3 -47 8 -75 11 -27 3 -90 12 -140 20 -49 8 -117 17 -150 20 -33 4
-73 8 -90 10 -58 8 -159 18 -300 29 -44 4 -109 9 -145 12 -36 3 -103 8 -150
10 -88 5 -789 12 -793 8z"/>
<path d="M3069 8495 c-2 -1 -65 -6 -139 -9 -74 -3 -162 -8 -195 -10 -128 -10
-211 -17 -235 -21 -14 -2 -56 -7 -95 -11 -38 -3 -83 -8 -100 -10 -16 -2 -43
-6 -60 -8 -44 -5 -136 -17 -170 -22 -16 -3 -46 -7 -65 -10 -19 -2 -57 -8 -85
-14 -27 -5 -68 -12 -89 -15 -39 -5 -81 -14 -103 -20 -8 -3 -9 -15 -2 -42 5
-21 11 -58 15 -83 3 -25 10 -56 15 -69 5 -13 7 -26 5 -29 -3 -2 -1 -12 4 -22
8 -15 16 -16 57 -8 67 13 83 16 128 23 22 4 51 8 65 11 14 2 39 6 55 8 72 9
131 18 145 21 8 2 47 7 85 11 39 3 78 8 87 9 15 3 105 12 198 20 19 2 69 6
110 9 221 19 435 27 745 27 317 1 597 -10 730 -26 17 -2 66 -6 110 -10 44 -3
94 -8 112 -10 31 -5 31 -4 37 43 15 111 18 139 20 178 l3 42 -79 7 c-43 3 -89
8 -101 10 -12 2 -67 7 -122 10 -55 4 -127 9 -160 12 -73 5 -921 13 -926 8z"/>
<path d="M3267 7834 c-1 -1 -87 -4 -192 -8 -104 -4 -212 -8 -240 -11 -27 -2
-88 -6 -135 -10 -47 -3 -101 -7 -120 -9 -19 -2 -71 -7 -115 -11 -44 -3 -87 -8
-95 -10 -8 -2 -42 -6 -75 -10 -67 -7 -111 -13 -170 -22 -22 -3 -53 -7 -70 -9
-52 -4 -314 -52 -325 -59 -6 -3 -8 -10 -6 -14 3 -4 7 -18 9 -32 46 -245 23
-219 174 -190 54 11 122 22 152 26 30 4 63 8 74 11 10 2 45 6 76 10 31 3 63 7
71 9 21 4 105 14 170 20 30 3 71 8 90 10 19 2 76 6 125 10 50 4 106 8 125 10
121 12 379 19 660 19 330 0 519 -7 775 -28 77 -7 105 -10 190 -20 22 -3 67 -8
100 -11 33 -3 71 -8 85 -10 14 -2 63 -9 110 -15 47 -7 94 -13 105 -15 11 -2
41 -6 66 -9 25 -4 78 -12 117 -20 76 -14 78 -14 85 25 3 13 12 68 22 122 10
54 16 100 13 102 -2 3 -21 7 -41 9 -21 3 -79 12 -130 20 -114 19 -141 23 -242
36 -176 22 -188 24 -397 45 -247 24 -502 37 -816 39 -123 0 -224 0 -225 0z"/>
<path d="M3128 7164 c-2 -1 -74 -5 -160 -9 -87 -3 -174 -8 -195 -10 -21 -2
-76 -6 -123 -10 -135 -10 -272 -23 -310 -30 -14 -2 -50 -7 -80 -10 -30 -3 -71
-8 -90 -10 -71 -10 -416 -66 -431 -70 -14 -5 -14 -15 3 -103 17 -86 25 -131
27 -154 1 -8 5 -7 176 22 66 11 140 22 165 25 25 3 54 8 66 10 11 3 43 7 70
10 27 3 60 8 74 10 14 2 52 7 85 10 33 3 76 8 95 10 34 4 120 11 245 20 210
16 364 20 705 20 434 0 581 -7 920 -41 54 -6 60 -4 61 12 0 11 2 28 4 39 3 11
7 49 11 85 3 36 7 77 9 93 2 15 0 27 -3 28 -4 0 -16 2 -27 4 -29 6 -108 14
-195 20 -41 3 -91 7 -110 9 -95 12 -319 19 -637 21 -194 1 -354 1 -355 -1z"/>
<path d="M3367 6504 c-1 -1 -96 -5 -212 -8 -321 -11 -528 -25 -755 -51 -19 -2
-60 -7 -90 -10 -79 -8 -131 -15 -160 -20 -14 -2 -45 -7 -70 -10 -25 -3 -81
-12 -125 -20 -44 -8 -98 -17 -120 -20 -77 -12 -100 -17 -103 -20 -6 -6 -3 -41
8 -90 6 -27 13 -61 15 -75 20 -106 16 -100 62 -90 21 5 56 11 78 14 22 4 67
11 100 17 33 6 71 13 85 14 55 6 126 17 140 20 8 3 46 7 85 11 38 3 72 7 75 9
3 2 46 6 95 10 50 4 98 9 109 11 10 2 64 6 120 10 55 3 117 8 136 10 208 21
979 21 1210 0 19 -2 79 -7 132 -10 54 -4 105 -9 115 -10 10 -2 54 -7 98 -11
44 -3 89 -8 100 -10 11 -2 45 -7 76 -10 31 -3 66 -7 76 -9 11 -3 44 -7 74 -11
79 -9 201 -28 298 -45 30 -6 56 -10 57 -10 1 0 4 17 8 38 3 20 8 51 11 67 23
126 25 149 18 155 -4 5 -28 11 -53 14 -25 3 -70 10 -100 16 -30 5 -71 12 -90
14 -19 3 -48 7 -65 10 -16 3 -50 7 -75 10 -80 10 -124 16 -160 21 -32 4 -55 7
-195 20 -27 3 -70 7 -95 10 -42 4 -136 12 -270 21 -30 2 -161 6 -290 10 -129
3 -261 7 -293 7 -32 1 -59 1 -60 1z"/>
<path d="M8967 9164 c-1 -1 -65 -5 -142 -8 -77 -4 -162 -9 -190 -11 -133 -10
-204 -16 -245 -20 -25 -3 -70 -7 -100 -10 -89 -8 -231 -25 -295 -35 -33 -5
-78 -12 -100 -15 -22 -3 -65 -9 -95 -15 -30 -5 -73 -11 -95 -14 -22 -3 -58
-10 -80 -15 -22 -6 -42 -10 -45 -11 -6 0 -6 -2 4 -70 4 -30 11 -68 16 -85 5
-16 11 -45 12 -63 1 -19 5 -35 9 -38 4 -2 56 5 115 16 60 11 132 22 159 25 28
3 57 8 65 10 17 5 78 13 136 20 21 2 55 6 74 9 89 12 193 22 305 31 44 3 100
8 125 10 239 21 977 28 1205 12 61 -4 142 -10 180 -12 39 -3 93 -7 120 -10 28
-3 73 -7 100 -10 28 -3 68 -7 90 -9 96 -9 356 -45 485 -66 142 -24 150 -24
151 2 0 13 2 30 4 38 2 8 6 33 10 55 3 22 8 51 11 65 13 68 14 80 7 81 -16 2
-70 10 -154 24 -48 9 -120 20 -160 25 -41 5 -91 12 -111 15 -83 11 -115 15
-168 20 -30 3 -75 8 -100 11 -25 3 -65 7 -90 10 -239 20 -287 24 -401 30 -104
6 -807 13 -812 8z"/>
<path d="M9298 8505 c-1 -1 -118 -6 -258 -10 -140 -3 -273 -8 -295 -10 -22 -1
-89 -5 -150 -9 -60 -4 -123 -9 -140 -11 -16 -3 -61 -7 -100 -10 -68 -5 -203
-20 -275 -30 -19 -2 -60 -7 -90 -11 -30 -3 -57 -7 -60 -9 -3 -2 -29 -6 -59
-10 -30 -4 -61 -8 -70 -10 -9 -1 -36 -6 -61 -11 -25 -4 -47 -8 -50 -9 -3 -1
-29 -5 -57 -9 -29 -4 -55 -11 -57 -14 -3 -6 3 -44 27 -167 3 -11 7 -36 11 -56
l6 -36 103 18 c56 10 122 21 147 24 25 3 68 10 95 15 28 5 75 12 105 15 30 4
62 8 70 10 8 1 49 6 90 10 41 4 82 8 91 10 8 1 56 6 106 9 50 4 100 9 111 11
12 2 81 7 154 11 73 3 160 8 193 10 98 6 733 6 820 1 44 -3 132 -9 195 -12 63
-4 126 -8 140 -10 14 -2 57 -7 95 -10 39 -4 84 -8 102 -10 18 -2 35 -1 37 4 3
4 8 36 11 72 4 35 10 90 14 122 4 32 5 59 2 62 -4 2 -40 6 -81 10 -41 3 -86 8
-100 10 -14 2 -70 7 -125 11 -55 3 -120 8 -145 9 -25 2 -153 7 -285 10 -132 3
-245 8 -252 10 -6 2 -13 2 -15 0z"/>
<path d="M9147 7834 c-1 -1 -96 -5 -212 -8 -115 -4 -226 -9 -245 -10 -19 -2
-84 -7 -145 -11 -60 -4 -116 -8 -125 -10 -8 -1 -55 -6 -104 -10 -49 -4 -96 -8
-105 -10 -9 -1 -45 -6 -81 -10 -36 -4 -72 -8 -80 -10 -8 -1 -40 -6 -70 -10
-30 -4 -62 -9 -70 -10 -8 -1 -49 -8 -90 -15 -240 -38 -251 -41 -246 -59 3 -9
10 -45 16 -81 5 -36 14 -78 18 -95 5 -16 7 -36 5 -42 -8 -22 23 -25 109 -9 46
8 99 17 118 20 19 3 46 8 60 10 22 4 101 16 140 21 8 1 43 5 77 9 34 4 70 8
80 10 16 3 61 8 203 21 19 2 67 6 106 10 375 35 1113 40 1434 10 25 -2 81 -7
125 -11 44 -3 94 -7 110 -9 120 -11 172 -17 185 -20 8 -2 47 -7 85 -10 39 -4
77 -8 85 -10 8 -2 35 -7 60 -10 49 -6 170 -24 210 -31 14 -2 43 -7 65 -10 22
-3 44 -7 49 -8 6 0 17 42 27 94 9 52 20 111 24 131 l7 36 -44 7 c-23 4 -59 9
-78 11 -19 2 -46 7 -60 10 -14 3 -43 7 -65 11 -22 3 -50 7 -61 9 -12 2 -48 7
-80 10 -33 4 -68 9 -79 11 -11 2 -47 7 -80 10 -33 3 -71 7 -84 9 -14 3 -54 7
-90 11 -36 3 -82 7 -101 10 -19 2 -73 6 -120 9 -47 4 -105 8 -130 10 -140 11
-744 26 -753 19z"/>
</g>
</svg>
